<svg width="108" height="108" viewBox="0 0 108 108" fill="none" xmlns="http://www.w3.org/2000/svg">
<path d="M19.4429 30.8247C22.8489 27.274 27.3669 25.2 32.6747 25.2C43.0148 25.2 49.8704 32.6912 51.1821 43.9135C51.6073 47.558 51.6034 52.696 51.5992 58.6473C51.5983 59.2576 51.5983 59.8765 51.5983 60.5032V82.7976H37.3787V66.308C37.3787 66.308 37.3497 52.1952 37.2628 49.5576C36.8812 38.0701 30.0274 30.8519 19.4416 30.8441C16.2478 34.1923 14.5365 38.2861 14.2841 44.5456C14.2494 45.4186 14.2581 48.5132 14.2696 52.5917C14.2756 54.7049 14.2823 57.0823 14.2841 59.5517C14.2946 70.2997 14.2841 82.8 14.2841 82.8H0.0643782V57.4227C0.0643782 56.5531 0.0483961 55.6762 0.0323772 54.7957C0.000127149 53.0248 -0.0323785 51.2401 0.0643782 49.473C0.225037 46.5272 0.738617 43.6312 2.12396 40.941C5.29499 34.7778 11.7925 30.8095 18.7193 30.8095C18.9612 30.8095 19.2034 30.8155 19.4429 30.8247Z" fill="white"/>
<path d="M107.937 58.5317C108.032 56.7649 108 54.9804 107.968 53.2099C107.953 52.3297 107.937 51.4529 107.937 50.5835V25.2108H94.0474C94.0474 25.2108 94.0371 37.7087 94.0474 48.4547C94.049 50.9236 94.0556 53.3004 94.0614 55.4132C94.0726 59.4912 94.0812 62.5852 94.0474 63.4581C93.8009 69.7166 92.1292 73.8096 89.0096 77.1572C78.6695 77.1499 71.9749 69.9324 71.6019 58.4471C71.517 55.81 71.4811 49.2659 71.4811 41.6866V25.2L57.6016 25.2129V47.5032C57.6016 48.1298 57.6008 48.7485 57.6008 49.3588C57.5965 55.309 57.5929 60.4459 58.0083 64.0899C59.2867 75.3102 65.9833 82.8 76.0836 82.8C81.2684 82.8 85.6816 80.7263 89.0086 77.1763C89.2424 77.1855 89.4788 77.191 89.7151 77.191C96.4812 77.191 102.828 73.2236 105.926 67.0616C107.279 64.3716 107.78 61.4764 107.937 58.531L107.937 58.5317Z" fill="white"/>
</svg>
